<svg width="18" height="18" viewBox="0 0 18 18" fill="none" xmlns="http://www.w3.org/2000/svg">
<path fill-rule="evenodd" clip-rule="evenodd" d="M9.00093 0.466675C6.68339 0.466675 6.39255 0.476808 5.48232 0.518231C4.57386 0.559831 3.95377 0.703655 3.41118 0.914679C2.84993 1.13264 2.37384 1.4242 1.89952 1.89869C1.42485 2.37301 1.13329 2.8491 0.914624 3.41017C0.703066 3.95293 0.559065 4.57321 0.518175 5.4813C0.477464 6.39154 0.466797 6.68256 0.466797 9.0001C0.466797 11.3176 0.477108 11.6076 0.518353 12.5178C0.560131 13.4263 0.703955 14.0464 0.914802 14.589C1.13294 15.1502 1.4245 15.6263 1.89899 16.1006C2.37313 16.5753 2.84922 16.8676 3.41012 17.0855C3.95306 17.2965 4.57333 17.4404 5.4816 17.482C6.39184 17.5234 6.68251 17.5335 8.99986 17.5335C11.3176 17.5335 11.6075 17.5234 12.5178 17.482C13.4262 17.4404 14.047 17.2965 14.59 17.0855C15.151 16.8676 15.6264 16.5753 16.1006 16.1006C16.5752 15.6263 16.8668 15.1502 17.0855 14.5891C17.2952 14.0464 17.4392 13.4261 17.4819 12.518C17.5228 11.6078 17.5335 11.3176 17.5335 9.0001C17.5335 6.68256 17.5228 6.39171 17.4819 5.48148C17.4392 4.57303 17.2952 3.95293 17.0855 3.41035C16.8668 2.8491 16.5752 2.37301 16.1006 1.89869C15.6259 1.42402 15.1512 1.13246 14.5894 0.914679C14.0454 0.703655 13.425 0.559831 12.5165 0.518231C11.6063 0.476808 11.3165 0.466675 8.99826 0.466675H9.00093ZM8.23537 2.00444C8.46258 2.00409 8.71609 2.00444 9.00089 2.00444C11.2793 2.00444 11.5494 2.01262 12.4491 2.05351C13.2811 2.09156 13.7327 2.23058 14.0335 2.34738C14.4317 2.50205 14.7156 2.68694 15.0141 2.98561C15.3128 3.28428 15.4977 3.56873 15.6527 3.96695C15.7695 4.2674 15.9087 4.71896 15.9466 5.55097C15.9875 6.45054 15.9963 6.72076 15.9963 8.99812C15.9963 11.2755 15.9875 11.5457 15.9466 12.4453C15.9085 13.2773 15.7695 13.7288 15.6527 14.0293C15.498 14.4275 15.3128 14.7111 15.0141 15.0096C14.7154 15.3082 14.4319 15.4931 14.0335 15.6478C13.733 15.7651 13.2811 15.9038 12.4491 15.9418C11.5495 15.9827 11.2793 15.9916 9.00089 15.9916C6.72229 15.9916 6.45224 15.9827 5.55268 15.9418C4.72067 15.9034 4.26911 15.7644 3.96813 15.6476C3.5699 15.4929 3.28546 15.3081 2.98679 15.0094C2.68812 14.7107 2.50323 14.427 2.3482 14.0286C2.2314 13.7281 2.0922 13.2766 2.05433 12.4446C2.01344 11.545 2.00527 11.2748 2.00527 8.99598C2.00527 6.7172 2.01344 6.4484 2.05433 5.54884C2.09238 4.71683 2.2314 4.26527 2.3482 3.96447C2.50287 3.56624 2.68812 3.28179 2.98679 2.98312C3.28546 2.68445 3.5699 2.49956 3.96813 2.34454C4.26893 2.2272 4.72067 2.08853 5.55268 2.05031C6.33989 2.01476 6.64496 2.00409 8.23537 2.00231V2.00444ZM13.556 3.42135C12.9906 3.42135 12.532 3.87949 12.532 4.44501C12.532 5.01035 12.9906 5.46902 13.556 5.46902C14.1213 5.46902 14.58 5.01035 14.58 4.44501C14.58 3.87967 14.1213 3.42135 13.556 3.42135ZM9.00095 4.61781C6.58083 4.61781 4.61868 6.57996 4.61868 9.00007C4.61868 11.4202 6.58083 13.3815 9.00095 13.3815C11.4211 13.3815 13.3825 11.4202 13.3825 9.00007C13.3825 6.57996 11.4211 4.61781 9.00095 4.61781ZM9.00091 6.1556C10.5718 6.1556 11.8454 7.42903 11.8454 9.00007C11.8454 10.5709 10.5718 11.8445 9.00091 11.8445C7.42987 11.8445 6.15644 10.5709 6.15644 9.00007C6.15644 7.42903 7.42987 6.1556 9.00091 6.1556Z" fill="white"/>
</svg>
