<svg width="16" height="14" viewBox="0 0 16 14" fill="none" xmlns="http://www.w3.org/2000/svg">
<path fill-rule="evenodd" clip-rule="evenodd" d="M7.5208 4.00498L7.55438 4.55861L6.99479 4.49082C4.95791 4.23095 3.17843 3.34965 1.66756 1.86952L0.928908 1.13511L0.73865 1.67744C0.33575 2.88641 0.593158 4.16316 1.43253 5.02186C1.8802 5.4964 1.77948 5.5642 1.00725 5.28173C0.73865 5.19134 0.503625 5.12355 0.481242 5.15744C0.4029 5.23653 0.6715 6.26472 0.884142 6.67147C1.17513 7.2364 1.76828 7.79004 2.4174 8.1177L2.96579 8.37757L2.31668 8.38887C1.68994 8.38887 1.66756 8.40017 1.73471 8.63744C1.95854 9.37186 2.84268 10.1515 3.82755 10.4904L4.52143 10.7277L3.91708 11.0893C3.02175 11.609 1.96973 11.9028 0.917717 11.9254C0.414092 11.9367 0 11.9819 0 12.0158C0 12.1287 1.36538 12.7615 2.15999 13.01C4.54382 13.7445 7.37531 13.4281 9.50173 12.1739C11.0126 11.2813 12.5235 9.50744 13.2286 7.79004C13.6091 6.87485 13.9896 5.20264 13.9896 4.40043C13.9896 3.88069 14.0232 3.8129 14.6499 3.19147C15.0192 2.82991 15.3662 2.43446 15.4333 2.32147C15.5452 2.1068 15.534 2.1068 14.9633 2.29887C14.012 2.63783 13.8777 2.59264 14.3477 2.0842C14.6947 1.72264 15.1088 1.06732 15.1088 0.875237C15.1088 0.841341 14.9409 0.897835 14.7506 0.999523C14.5492 1.11251 14.1015 1.28199 13.7658 1.38368L13.1614 1.57576L12.613 1.2029C12.3108 0.999523 11.8856 0.773549 11.6617 0.705757C11.0909 0.547575 10.218 0.570172 9.70318 0.750952C8.30422 1.25939 7.42008 2.57004 7.5208 4.00498Z" fill="white"/>
</svg>
